<svg width="362" height="660" viewBox="0 0 362 660" fill="none" xmlns="http://www.w3.org/2000/svg">
<path d="M2 660H362V0H2V660Z" fill="#E9F7FC"/>
<path d="M272.694 300.127C277.668 302.674 281.544 308.569 285.488 314.549C288.23 318.686 291.373 322.64 295.05 321.866C299.215 320.98 302.973 323.273 306.798 325.412C308.162 326.158 309.555 325.074 310.875 326.158C311.253 326.453 311.898 326.158 311.824 327.41C311.81 327.653 311.768 327.888 311.7 328.096C311.633 328.305 311.543 328.483 311.435 328.617C311.327 328.752 311.205 328.839 311.078 328.874C310.95 328.908 310.82 328.889 310.697 328.817C309.148 328.283 307.606 328.817 306.057 328.817C296.421 328.817 286.785 329.014 277.149 329.043C267.913 329.043 258.678 329.042 249.442 328.958C241.037 328.958 232.616 328.592 224.24 328.888C218.251 329.113 212.27 328.494 206.288 328.888C205.843 328.888 205.391 328.888 204.946 328.817C204.501 328.747 204.064 328.817 204.005 327.804C203.946 326.791 204.442 326.327 204.865 326.186C206.273 325.722 207.703 325.44 209.112 324.976C213.337 323.569 217.503 322.162 221.401 318.236C224.433 315.197 227.331 311.538 230.845 310.215C232.488 309.476 234.206 309.613 235.811 310.61C237.857 312.017 239.828 313.733 241.889 315.014C243.329 315.923 244.852 316.267 246.364 316.026C247.877 315.784 249.347 314.961 250.687 313.606C254.342 310.089 257.825 305.896 261.695 303.25C264.207 301.521 266.829 300.428 269.492 300H271.582L272.198 300.085H272.716" fill="white"/>
<path d="M124.694 287.127C129.668 289.674 133.544 295.569 137.488 301.549C140.23 305.686 143.373 309.64 147.05 308.866C151.215 307.98 154.973 310.273 158.798 312.412C160.162 313.158 161.555 312.074 162.875 313.158C163.253 313.453 163.898 313.158 163.824 314.41C163.81 314.653 163.768 314.888 163.7 315.096C163.633 315.305 163.543 315.483 163.435 315.617C163.327 315.752 163.205 315.839 163.078 315.874C162.95 315.908 162.82 315.889 162.697 315.817C161.148 315.283 159.606 315.817 158.057 315.817C148.421 315.817 138.785 316.014 129.149 316.043C119.913 316.043 110.678 316.042 101.442 315.958C93.0365 315.958 84.6162 315.592 76.2404 315.888C70.2512 316.113 64.2696 315.494 58.2879 315.888C57.8431 315.888 57.391 315.888 56.9462 315.817C56.5015 315.747 56.0641 315.817 56.0048 314.804C55.9455 313.791 56.4421 313.327 56.8646 313.186C58.2729 312.722 59.7035 312.44 61.1118 311.976C65.3368 310.569 69.5026 309.162 73.4014 305.236C76.433 302.197 79.3312 298.538 82.8446 297.215C84.4876 296.476 86.2061 296.613 87.8108 297.61C89.8566 299.017 91.8282 300.733 93.8888 302.014C95.3291 302.923 96.8518 303.267 98.3642 303.026C99.8767 302.784 101.347 301.961 102.687 300.606C106.342 297.089 109.825 292.896 113.695 290.25C116.207 288.521 118.829 287.428 121.492 287H123.582L124.198 287.085H124.716" fill="white"/>
<path d="M68.6942 414.127C73.6679 416.674 77.5445 422.569 81.4878 428.549C84.2303 432.686 87.3732 436.64 91.0497 435.866C95.2154 434.98 98.9733 437.273 102.798 439.412C104.162 440.158 105.555 439.074 106.875 440.158C107.253 440.453 107.898 440.158 107.824 441.41C107.81 441.653 107.768 441.888 107.7 442.096C107.633 442.305 107.543 442.483 107.435 442.617C107.327 442.752 107.205 442.839 107.078 442.874C106.95 442.908 106.82 442.889 106.697 442.817C105.148 442.283 103.606 442.817 102.057 442.817C92.4209 442.817 82.7849 443.014 73.149 443.043C63.9133 443.043 54.6777 443.042 45.442 442.958C37.0365 442.958 28.6162 442.592 20.2404 442.888C14.2512 443.113 8.26958 442.494 2.28788 442.888C1.84314 442.888 1.39095 442.888 0.946216 442.817C0.501481 442.747 0.0641427 442.817 0.00484461 441.804C-0.0544535 440.791 0.442103 440.327 0.864602 440.186C2.27293 439.722 3.70348 439.44 5.11181 438.976C9.3368 437.569 13.5026 436.162 17.4014 432.236C20.433 429.197 23.3312 425.538 26.8446 424.215C28.4876 423.476 30.2061 423.613 31.8108 424.61C33.8566 426.017 35.8282 427.733 37.8888 429.014C39.3291 429.923 40.8518 430.267 42.3642 430.026C43.8767 429.784 45.3475 428.961 46.6873 427.606C50.3415 424.089 53.8253 419.896 57.6945 417.25C60.2072 415.521 62.8289 414.428 65.4921 414H67.5824L68.1977 414.085H68.7165" fill="white"/>
<path d="M315.916 381.99C315.916 382.785 315.606 383.547 315.054 384.111C314.502 384.675 313.752 384.994 312.968 385C312.181 385 311.426 384.683 310.869 384.118C310.313 383.554 310 382.789 310 381.99C310.006 381.196 310.321 380.436 310.877 379.876C311.433 379.316 312.185 379.002 312.968 379.002C313.355 378.988 313.74 379.053 314.102 379.192C314.463 379.331 314.794 379.542 315.074 379.813C315.36 380.088 315.59 380.419 315.749 380.786C315.908 381.152 315.993 381.547 316 381.948" fill="#010101"/>
<path d="M303.855 383L309.848 394.114C309.951 394.307 310.003 394.525 310 394.747C309.997 394.968 309.938 395.184 309.83 395.374C309.722 395.565 309.568 395.723 309.383 395.832C309.198 395.942 308.989 396 308.777 396L299 395.864" fill="#EABB9B"/>
<path d="M297.5 390C297.776 390 298 389.776 298 389.5C298 389.224 297.776 389 297.5 389C297.224 389 297 389.224 297 389.5C297 389.776 297.224 390 297.5 390Z" fill="#D8AD8F"/>
<path d="M307.5 393C307.776 393 308 392.776 308 392.5C308 392.224 307.776 392 307.5 392C307.224 392 307 392.224 307 392.5C307 392.776 307.224 393 307.5 393Z" fill="#D8AD8F"/>
<path d="M302.5 392C302.776 392 303 391.776 303 391.5C303 391.224 302.776 391 302.5 391C302.224 391 302 391.224 302 391.5C302 391.776 302.224 392 302.5 392Z" fill="#D8AD8F"/>
<path d="M304.5 389C304.776 389 305 388.552 305 388C305 387.448 304.776 387 304.5 387C304.224 387 304 387.448 304 388C304 388.552 304.224 389 304.5 389Z" fill="#D8AD8F"/>
<path d="M200.855 423H107.145C104.303 423 102 425.279 102 428.09V449.91C102 452.721 104.303 455 107.145 455H200.855C203.697 455 206 452.721 206 449.91V428.09C206 425.279 203.697 423 200.855 423Z" fill="#FF947B"/>
<path d="M184 434H135V436H184V434Z" fill="#FFD9CD"/>
<path d="M198 438H135V440H198V438Z" fill="#FFD9CD"/>
<path d="M198 442H135V443H198V442Z" fill="#FFD9CD"/>
<path d="M159.408 468H104.592C103.16 468 102 469.16 102 470.592V480.408C102 481.84 103.16 483 104.592 483H159.408C160.84 483 162 481.84 162 480.408V470.592C162 469.16 160.84 468 159.408 468Z" fill="#FFD9CD"/>
<path d="M159.408 489H104.592C103.16 489 102 490.083 102 491.419V500.581C102 501.917 103.16 503 104.592 503H159.408C160.84 503 162 501.917 162 500.581V491.419C162 490.083 160.84 489 159.408 489Z" fill="#FFD9CD"/>
<path d="M302.593 658.826L262.367 468.153C261.428 463.61 262.308 458.876 264.814 454.983C267.32 451.09 271.249 448.354 275.747 447.37C280.252 446.423 284.946 447.31 288.806 449.838C292.666 452.365 295.379 456.328 296.355 460.864L337.699 656.831C337.842 657.547 337.943 658.271 338 659" fill="#A15AE5"/>
<path d="M184.043 660H304.718L305 542.725C305 489.301 287.036 446 275.01 446H231.672C205.387 446 184 540.613 184 657.322L184.043 660Z" fill="#B45EF7"/>
<path d="M237.227 451.583L230.453 448.541C220.697 444.158 209.236 448.518 204.855 458.279L161.913 553.956C157.532 563.717 161.89 575.183 171.647 579.565L178.421 582.608C188.178 586.99 199.638 582.63 204.019 572.869L246.961 477.192C251.342 467.431 246.984 455.966 237.227 451.583Z" fill="#B45EF7"/>
<path d="M88.5237 480.212L83.7471 485.899C76.8667 494.09 77.9269 506.31 86.1151 513.194L166.378 580.665C174.567 587.548 186.782 586.488 193.662 578.296L198.439 572.609C205.32 564.418 204.259 552.197 196.071 545.314L115.808 477.843C107.62 470.96 95.4042 472.02 88.5237 480.212Z" fill="#B45EF7"/>
<path d="M224.5 401C227.538 401 230 398.538 230 395.5C230 392.462 227.538 390 224.5 390C221.462 390 219 392.462 219 395.5C219 398.538 221.462 401 224.5 401Z" fill="#EBF1F2"/>
<path d="M266.004 329.18C266.004 329.18 187.986 308.532 219.497 440H292.139L295 339.979L266.004 329.18Z" fill="#B75300"/>
<path d="M238 420H268V449.261C267.986 451.211 267.587 453.138 266.826 454.934C266.065 456.73 264.957 458.359 263.565 459.728C262.173 461.096 260.524 462.178 258.714 462.911C256.903 463.644 254.965 464.014 253.011 464C249.062 464.029 245.264 462.493 242.449 459.729C239.635 456.966 238.034 453.201 238 449.261V420Z" fill="#EABB9B"/>
<path d="M247 425.203C247 425.203 254.801 438.979 268 437.945V412L247 425.203Z" fill="#C69C7F"/>
<path d="M271.782 425H238V362H305V391.719C305.003 396.088 304.146 400.415 302.478 404.453C300.809 408.491 298.363 412.16 295.278 415.251C292.193 418.342 288.531 420.793 284.499 422.466C280.467 424.139 276.146 425 271.782 425Z" fill="#EABB9B"/>
<path d="M284 381.989C284 382.784 283.686 383.547 283.126 384.111C282.566 384.675 281.805 384.994 281.011 385C280.212 385 279.446 384.683 278.882 384.118C278.317 383.554 278 382.788 278 381.989C278.006 381.195 278.325 380.434 278.889 379.874C279.453 379.314 280.216 379 281.011 379C281.803 379 282.564 379.315 283.125 379.876C283.685 380.436 284 381.197 284 381.989Z" fill="#010101"/>
<path d="M248.532 402H234.468C232.224 401.994 230.073 401.096 228.486 399.501C226.9 397.906 226.006 395.745 226 393.489C226.006 391.236 226.9 389.076 228.488 387.485C230.075 385.894 232.226 385 234.468 385H248.532C250.774 385 252.925 385.894 254.512 387.485C256.1 389.076 256.994 391.236 257 393.489C256.994 395.745 256.1 397.906 254.514 399.501C252.927 401.096 250.776 401.994 248.532 402" fill="#EABB9B"/>
<path d="M261 395.511C261.006 396.968 261.641 398.365 262.765 399.394C263.89 400.422 265.413 401 267 401C267.787 401.003 268.567 400.863 269.294 400.588C270.022 400.314 270.684 399.91 271.241 399.4C271.799 398.89 272.241 398.284 272.543 397.616C272.845 396.949 273 396.233 273 395.511C273.003 394.786 272.85 394.068 272.55 393.398C272.249 392.729 271.807 392.12 271.249 391.608C270.692 391.096 270.029 390.69 269.3 390.414C268.57 390.138 267.789 389.997 267 390C265.409 390 263.882 390.581 262.757 391.614C261.632 392.648 261 394.049 261 395.511" fill="#E09175"/>
<path d="M284.541 402.001C285.989 402.001 287.378 402.527 288.401 403.465C289.425 404.402 290 405.674 290 407L288.62 407C288.62 405.999 288.186 405.04 287.413 404.332C286.64 403.624 285.593 403.227 284.5 403.227C283.407 403.227 282.359 403.624 281.587 404.332C280.814 405.04 280.38 405.999 280.38 407L279 407C279 406.337 279.144 405.681 279.423 405.069C279.703 404.458 280.112 403.903 280.628 403.438C281.143 402.973 281.755 402.606 282.427 402.359C283.099 402.112 283.817 401.991 284.541 402.001V402.001Z" fill="#010101"/>
<path d="M238 333.25V331.069V330C234.24 333.28 231.213 337.403 229.138 342.072C227.063 346.741 225.992 351.839 226 357H237.238L237.794 337.372L238 333.25Z" fill="#B75300"/>
<path d="M286.355 328.828C284.548 328.213 282.691 327.754 280.806 327.457C278.98 327.15 277.132 326.997 275.28 327H251.44C246.619 326.999 241.85 328.007 237.439 329.96C237.115 331.232 236.969 332.544 237.005 333.856V337.97V342.215L237.287 362H310C310.006 354.682 307.729 347.547 303.487 341.597C299.246 335.647 293.254 331.181 286.355 328.828V328.828Z" fill="#B75300"/>
<path d="M290.5 394C290.776 394 291 393.776 291 393.5C291 393.224 290.776 393 290.5 393C290.224 393 290 393.224 290 393.5C290 393.776 290.224 394 290.5 394Z" fill="#D8AD8F"/>
<path d="M276.5 391C276.776 391 277 390.776 277 390.5C277 390.224 276.776 390 276.5 390C276.224 390 276 390.224 276 390.5C276 390.776 276.224 391 276.5 391Z" fill="#D8AD8F"/>
<path d="M284.5 388C284.776 388 285 387.776 285 387.5C285 387.224 284.776 387 284.5 387C284.224 387 284 387.224 284 387.5C284 387.776 284.224 388 284.5 388Z" fill="#D8AD8F"/>
<path d="M282.5 390C282.776 390 283 389.776 283 389.5C283 389.224 282.776 389 282.5 389C282.224 389 282 389.224 282 389.5C282 389.776 282.224 390 282.5 390Z" fill="#D8AD8F"/>
<path d="M105.525 498.633C112.112 490.806 113.555 481.179 108.748 477.131C103.941 473.084 94.7057 476.148 88.1192 483.975C81.5328 491.803 80.0898 501.43 84.8964 505.477C89.703 509.525 98.9389 506.461 105.525 498.633Z" fill="#9156D6"/>
<path d="M73.7668 461.538C74.8078 458.986 73.5838 456.073 71.033 455.031C68.4821 453.99 65.5704 455.214 64.5294 457.766C63.4884 460.318 64.7124 463.231 67.2632 464.272C69.8141 465.314 72.7258 464.089 73.7668 461.538Z" fill="#F19B70"/>
<path d="M72.6771 414.738C77.0378 414.719 80.5673 416.053 83.2657 418.74C85.964 421.426 87.3227 425.033 87.3419 429.561C87.3633 434.619 85.9476 438.383 83.0949 440.851C80.242 443.272 76.3709 444.493 71.4816 444.514C71.4816 444.514 71.3085 450.456 71.3124 451.379C71.3163 452.302 66.3118 452.231 66.0927 451.401C65.8736 450.571 65.7801 439.985 65.7801 439.985L67.6962 439.977C72.057 439.959 75.4676 439.222 77.9282 437.766C80.3887 436.311 81.6106 433.584 81.5936 429.585C81.5814 426.695 80.7789 424.41 79.186 422.731C77.5932 421.052 75.4533 420.218 72.7664 420.229C70.0354 420.241 67.8805 421.069 66.3017 422.713C64.7668 424.31 64.0052 426.505 64.017 429.299C64.0289 432.092 58.3471 432.213 58.3349 429.323C58.3226 426.432 58.9066 423.901 60.0867 421.728C61.2666 419.507 62.9332 417.79 65.0865 416.576C67.2838 415.363 69.814 414.75 72.6771 414.738Z" fill="#F19B70"/>
<rect x="108.961" y="433.857" width="6.28171" height="20.4155" rx="3.14085" transform="rotate(-45.1634 108.961 433.857)" fill="#FFD9CD"/>
<rect x="122.48" y="428.729" width="6.28171" height="20.4155" rx="3.14085" transform="rotate(41.6783 122.48 428.729)" fill="#FFD9CD"/>
<path d="M45.6915 473H91.3085C93.8995 473 96 475.166 96 477.839V478.161C96 480.834 93.8995 483 91.3085 483H45.6915C43.1005 483 41 480.834 41 478.161V477.839C41 475.166 43.1005 473 45.6915 473Z" fill="#E5B9A1"/>
<path d="M108 486.032C106.683 489.406 104.402 492.332 101.433 494.456C98.4647 496.58 94.9353 497.811 91.2718 498L84.8484 490.072C84.8484 490.072 82.4944 486.999 74.0446 486.032L59 482.314L81.3096 477.428L92.7996 473.034C94.5377 472.89 96.2831 473.206 97.8561 473.949C99.4291 474.691 100.773 475.834 101.748 477.259" fill="#E5B9A1"/>
</svg>
